G75*
%MOIN*%
%OFA0B0*%
%FSLAX24Y24*%
%IPPOS*%
%LPD*%
%AMOC8*
5,1,8,0,0,1.08239X$1,22.5*
%
%ADD10C,0.0600*%
%ADD11R,0.0710X0.0592*%
%ADD12OC8,0.0710*%
%ADD13C,0.0710*%
%ADD14OC8,0.0600*%
%ADD15C,0.0680*%
%ADD16C,0.0785*%
%ADD17R,0.0592X0.0710*%
%ADD18C,0.0520*%
%ADD19OC8,0.0680*%
%ADD20C,0.0480*%
D10*
X001850Y002840D02*
X001850Y003360D01*
X002850Y003360D02*
X002850Y002840D01*
X003850Y002840D02*
X003850Y003360D01*
X004850Y003360D02*
X004850Y002840D01*
X005850Y002840D02*
X005850Y003360D01*
X006850Y003360D02*
X006850Y002840D01*
X007850Y002840D02*
X007850Y003360D01*
X008850Y003360D02*
X008850Y002840D01*
X009850Y002840D02*
X009850Y003360D01*
X010850Y003360D02*
X010850Y002840D01*
X011850Y002840D02*
X011850Y003360D01*
X012850Y003360D02*
X012850Y002840D01*
X013850Y002840D02*
X013850Y003360D01*
X014850Y003360D02*
X014850Y002840D01*
X017850Y002840D02*
X017850Y003360D01*
X018850Y003360D02*
X018850Y002840D01*
X019850Y002840D02*
X019850Y003360D01*
X020850Y003360D02*
X020850Y002840D01*
X021850Y002840D02*
X021850Y003360D01*
X022850Y003360D02*
X022850Y002840D01*
X023850Y002840D02*
X023850Y003360D01*
X024850Y003360D02*
X024850Y002840D01*
X025850Y002840D02*
X025850Y003360D01*
X026850Y003360D02*
X026850Y002840D01*
X027850Y002840D02*
X027850Y003360D01*
X028850Y003360D02*
X028850Y002840D01*
X029850Y002840D02*
X029850Y003360D01*
X030850Y003360D02*
X030850Y002840D01*
X032590Y005600D02*
X033110Y005600D01*
X033110Y006600D02*
X032590Y006600D01*
X032590Y007600D02*
X033110Y007600D01*
X033110Y008600D02*
X032590Y008600D01*
X032590Y009600D02*
X033110Y009600D01*
X033110Y010600D02*
X032590Y010600D01*
X032590Y011600D02*
X033110Y011600D01*
X033110Y012600D02*
X032590Y012600D01*
X032590Y013600D02*
X033110Y013600D01*
X033110Y014600D02*
X032590Y014600D01*
X032590Y015600D02*
X033110Y015600D01*
X033110Y016600D02*
X032590Y016600D01*
X032590Y017600D02*
X033110Y017600D01*
X033110Y018600D02*
X032590Y018600D01*
X035590Y018600D02*
X036110Y018600D01*
X036110Y017600D02*
X035590Y017600D01*
X035590Y016600D02*
X036110Y016600D01*
X036110Y015600D02*
X035590Y015600D01*
X035590Y014600D02*
X036110Y014600D01*
X036110Y013600D02*
X035590Y013600D01*
X035590Y012600D02*
X036110Y012600D01*
X036110Y011600D02*
X035590Y011600D01*
X035590Y010600D02*
X036110Y010600D01*
X036110Y009600D02*
X035590Y009600D01*
X035590Y008600D02*
X036110Y008600D01*
X036110Y007600D02*
X035590Y007600D01*
X035590Y006600D02*
X036110Y006600D01*
X036110Y005600D02*
X035590Y005600D01*
X030850Y005840D02*
X030850Y006360D01*
X029850Y006360D02*
X029850Y005840D01*
X028850Y005840D02*
X028850Y006360D01*
X027850Y006360D02*
X027850Y005840D01*
X026850Y005840D02*
X026850Y006360D01*
X025850Y006360D02*
X025850Y005840D01*
X024850Y005840D02*
X024850Y006360D01*
X023850Y006360D02*
X023850Y005840D01*
X022850Y005840D02*
X022850Y006360D01*
X021850Y006360D02*
X021850Y005840D01*
X020850Y005840D02*
X020850Y006360D01*
X019850Y006360D02*
X019850Y005840D01*
X018850Y005840D02*
X018850Y006360D01*
X017850Y006360D02*
X017850Y005840D01*
X014850Y005840D02*
X014850Y006360D01*
X013850Y006360D02*
X013850Y005840D01*
X012850Y005840D02*
X012850Y006360D01*
X011850Y006360D02*
X011850Y005840D01*
X010850Y005840D02*
X010850Y006360D01*
X009850Y006360D02*
X009850Y005840D01*
X008850Y005840D02*
X008850Y006360D01*
X007850Y006360D02*
X007850Y005840D01*
X006850Y005840D02*
X006850Y006360D01*
X005850Y006360D02*
X005850Y005840D01*
X004850Y005840D02*
X004850Y006360D01*
X003850Y006360D02*
X003850Y005840D01*
X002850Y005840D02*
X002850Y006360D01*
X001850Y006360D02*
X001850Y005840D01*
X009850Y013340D02*
X009850Y013860D01*
X010850Y013860D02*
X010850Y013340D01*
X011850Y013340D02*
X011850Y013860D01*
X012850Y013860D02*
X012850Y013340D01*
X013850Y013340D02*
X013850Y013860D01*
X014850Y013860D02*
X014850Y013340D01*
X015850Y013340D02*
X015850Y013860D01*
X016850Y013860D02*
X016850Y013340D01*
X017850Y013340D02*
X017850Y013860D01*
X018850Y013860D02*
X018850Y013340D01*
X019850Y013340D02*
X019850Y013860D01*
X020850Y013860D02*
X020850Y013340D01*
X021850Y013340D02*
X021850Y013860D01*
X022850Y013860D02*
X022850Y013340D01*
X022850Y016340D02*
X022850Y016860D01*
X021850Y016860D02*
X021850Y016340D01*
X020850Y016340D02*
X020850Y016860D01*
X019850Y016860D02*
X019850Y016340D01*
X018850Y016340D02*
X018850Y016860D01*
X017850Y016860D02*
X017850Y016340D01*
X016850Y016340D02*
X016850Y016860D01*
X015850Y016860D02*
X015850Y016340D01*
X014850Y016340D02*
X014850Y016860D01*
X013850Y016860D02*
X013850Y016340D01*
X012850Y016340D02*
X012850Y016860D01*
X011850Y016860D02*
X011850Y016340D01*
X010850Y016340D02*
X010850Y016860D01*
X009850Y016860D02*
X009850Y016340D01*
D11*
X011350Y008974D03*
X011350Y008226D03*
X008850Y004974D03*
X008850Y004226D03*
X034350Y012226D03*
X034350Y012974D03*
D12*
X029350Y011600D03*
X023850Y009600D03*
X010350Y009600D03*
X007850Y011600D03*
X005350Y011600D03*
D13*
X005350Y012600D03*
X008850Y011600D03*
X010350Y008600D03*
X024850Y009600D03*
X029350Y012600D03*
D14*
X031350Y012600D03*
X031350Y011600D03*
X026850Y011100D03*
X025850Y011100D03*
X024850Y007600D03*
X023850Y007600D03*
X016850Y012100D03*
X015850Y012100D03*
X008850Y007600D03*
X007850Y007600D03*
X015850Y018100D03*
X016850Y018100D03*
D15*
X000850Y001400D02*
X000850Y000800D01*
X001850Y000800D02*
X001850Y001400D01*
X002850Y001400D02*
X002850Y000800D01*
X003850Y000800D02*
X003850Y001400D01*
X004850Y001400D02*
X004850Y000800D01*
X005850Y000800D02*
X005850Y001400D01*
X006850Y001400D02*
X006850Y000800D01*
X007850Y000800D02*
X007850Y001400D01*
X008850Y001400D02*
X008850Y000800D01*
X009850Y000800D02*
X009850Y001400D01*
X010850Y001400D02*
X010850Y000800D01*
X011850Y000800D02*
X011850Y001400D01*
X012850Y001400D02*
X012850Y000800D01*
X013850Y000800D02*
X013850Y001400D01*
X014850Y001400D02*
X014850Y000800D01*
X015850Y000800D02*
X015850Y001400D01*
X016850Y001400D02*
X016850Y000800D01*
X017850Y000800D02*
X017850Y001400D01*
X018850Y001400D02*
X018850Y000800D01*
X019850Y000800D02*
X019850Y001400D01*
X020850Y001400D02*
X020850Y000800D01*
X021850Y000800D02*
X021850Y001400D01*
X022850Y001400D02*
X022850Y000800D01*
X023850Y000800D02*
X023850Y001400D01*
X024850Y001400D02*
X024850Y000800D01*
X025850Y000800D02*
X025850Y001400D01*
X026850Y001400D02*
X026850Y000800D01*
X027850Y000800D02*
X027850Y001400D01*
X028850Y001400D02*
X028850Y000800D01*
X029850Y000800D02*
X029850Y001400D01*
X030850Y001400D02*
X030850Y000800D01*
X031850Y000800D02*
X031850Y001400D01*
X037550Y004600D02*
X038150Y004600D01*
X038150Y005600D02*
X037550Y005600D01*
X037550Y006600D02*
X038150Y006600D01*
X038150Y007600D02*
X037550Y007600D01*
X037550Y008600D02*
X038150Y008600D01*
X038150Y009600D02*
X037550Y009600D01*
X037550Y010600D02*
X038150Y010600D01*
X038150Y011600D02*
X037550Y011600D01*
X037550Y012600D02*
X038150Y012600D01*
X038150Y013600D02*
X037550Y013600D01*
X037550Y014600D02*
X038150Y014600D01*
X038150Y015600D02*
X037550Y015600D01*
X037550Y016600D02*
X038150Y016600D01*
X038150Y017600D02*
X037550Y017600D01*
X037550Y018600D02*
X038150Y018600D01*
X038150Y019600D02*
X037550Y019600D01*
D16*
X002453Y018600D02*
X001748Y018600D01*
X001748Y016600D02*
X002453Y016600D01*
X002453Y014600D02*
X001748Y014600D01*
X001748Y012600D02*
X002453Y012600D01*
X002453Y010600D02*
X001748Y010600D01*
D17*
X024476Y004600D03*
X025224Y004600D03*
X027476Y011600D03*
X028224Y011600D03*
D18*
X020850Y011380D02*
X020850Y011820D01*
X018850Y011820D02*
X018850Y011380D01*
D19*
X024850Y019100D03*
X025850Y019100D03*
X026850Y019100D03*
X027850Y019100D03*
X028850Y019100D03*
D20*
X025350Y014100D03*
X018350Y014600D03*
X014850Y015600D03*
X015350Y008100D03*
X020850Y004100D03*
M02*
