%
M48
M72
T01C0.0240
T02C0.0320
T03C0.0400
T04C0.0470
%
T01
X15350Y8100
X18850Y11600
X20850Y11600
X25350Y14100
X18350Y14600
X14850Y15600
X20850Y4100
T02
X20850Y3100
X21850Y3100
X22850Y3100
X23850Y3100
X24850Y3100
X25850Y3100
X26850Y3100
X27850Y3100
X28850Y3100
X29850Y3100
X30850Y3100
X32850Y5600
X32850Y6600
X32850Y7600
X32850Y8600
X32850Y9600
X32850Y10600
X32850Y11600
X32850Y12600
X31350Y12600
X31350Y11600
X29350Y11600
X29350Y12600
X26850Y11100
X25850Y11100
X24850Y9600
X23850Y9600
X23850Y7600
X24850Y7600
X24850Y6100
X23850Y6100
X22850Y6100
X21850Y6100
X20850Y6100
X19850Y6100
X18850Y6100
X17850Y6100
X14850Y6100
X13850Y6100
X12850Y6100
X11850Y6100
X10850Y6100
X9850Y6100
X8850Y6100
X7850Y6100
X6850Y6100
X5850Y6100
X4850Y6100
X3850Y6100
X2850Y6100
X1850Y6100
X1850Y3100
X2850Y3100
X3850Y3100
X4850Y3100
X5850Y3100
X6850Y3100
X7850Y3100
X8850Y3100
X9850Y3100
X10850Y3100
X11850Y3100
X12850Y3100
X13850Y3100
X14850Y3100
X17850Y3100
X18850Y3100
X19850Y3100
X25850Y6100
X26850Y6100
X27850Y6100
X28850Y6100
X29850Y6100
X30850Y6100
X35850Y5600
X35850Y6600
X35850Y7600
X35850Y8600
X35850Y9600
X35850Y10600
X35850Y11600
X35850Y12600
X35850Y13600
X35850Y14600
X35850Y15600
X35850Y16600
X35850Y17600
X35850Y18600
X32850Y18600
X32850Y17600
X32850Y16600
X32850Y15600
X32850Y14600
X32850Y13600
X22850Y13600
X21850Y13600
X20850Y13600
X19850Y13600
X18850Y13600
X17850Y13600
X16850Y13600
X15850Y13600
X14850Y13600
X13850Y13600
X12850Y13600
X11850Y13600
X10850Y13600
X9850Y13600
X8850Y11600
X7850Y11600
X5350Y11600
X5350Y12600
X10350Y9600
X10350Y8600
X8850Y7600
X7850Y7600
X15850Y12100
X16850Y12100
X16850Y16600
X17850Y16600
X18850Y16600
X19850Y16600
X20850Y16600
X21850Y16600
X22850Y16600
X16850Y18100
X15850Y18100
X15850Y16600
X14850Y16600
X13850Y16600
X12850Y16600
X11850Y16600
X10850Y16600
X9850Y16600
T03
X850Y1100
X1850Y1100
X2850Y1100
X3850Y1100
X4850Y1100
X5850Y1100
X6850Y1100
X7850Y1100
X8850Y1100
X9850Y1100
X10850Y1100
X11850Y1100
X12850Y1100
X13850Y1100
X14850Y1100
X15850Y1100
X16850Y1100
X17850Y1100
X18850Y1100
X19850Y1100
X20850Y1100
X21850Y1100
X22850Y1100
X23850Y1100
X24850Y1100
X25850Y1100
X26850Y1100
X27850Y1100
X28850Y1100
X29850Y1100
X30850Y1100
X31850Y1100
X37850Y4600
X37850Y5600
X37850Y6600
X37850Y7600
X37850Y8600
X37850Y9600
X37850Y10600
X37850Y11600
X37850Y12600
X37850Y13600
X37850Y14600
X37850Y15600
X37850Y16600
X37850Y17600
X37850Y18600
X37850Y19600
X28850Y19100
X27850Y19100
X26850Y19100
X25850Y19100
X24850Y19100
T04
X2100Y18600
X2100Y16600
X2100Y14600
X2100Y12600
X2100Y10600
M30
